<svg xmlns="http://www.w3.org/2000/svg" viewBox="0 0 32 32" role="img" aria-label="Necromunda">
  <rect width="32" height="32" rx="6" fill="#14161c"/>
  <rect x="1.5" y="1.5" width="29" height="29" rx="5" fill="none" stroke="#e8622a" stroke-width="2"/>
  <!-- hive spires -->
  <path fill="#8a3a16" d="M9 12.5 L12.5 3.5 L16 12.5 Z M16 11 L18 5.5 L20 11 Z M16 12.5 L19.5 3.5 L23 12.5 Z"/>
  <!-- skull -->
  <path fill="#e8622a" d="M8.5 16.2 a7.5 7.2 0 0 1 15 0 v2.2 c0 1.4-0.8 2.6-2.2 3.2 v3.2 c0 0.7-0.6 1.2-1.3 1.2 h-8 c-0.7 0-1.3-0.5-1.3-1.2 v-3.2 c-1.4-0.6-2.2-1.8-2.2-3.2 z"/>
  <ellipse cx="12.7" cy="16.6" rx="2.3" ry="2.6" fill="#14161c"/>
  <ellipse cx="19.3" cy="16.6" rx="2.3" ry="2.6" fill="#14161c"/>
  <path fill="#14161c" d="M16 18.2 L18.4 22 H13.6 Z"/>
  <rect x="12.2" y="23.6" width="1.7" height="2.6" fill="#14161c"/>
  <rect x="15.15" y="23.6" width="1.7" height="2.6" fill="#14161c"/>
  <rect x="18.1" y="23.6" width="1.7" height="2.6" fill="#14161c"/>
</svg>
